<?xml version="1.0" encoding="utf-8"?>
<!-- Generator: Adobe Illustrator 26.5.0, SVG Export Plug-In . SVG Version: 6.00 Build 0)  -->
<svg version="1.1" id="Capa_1" xmlns="http://www.w3.org/2000/svg" xmlns:xlink="http://www.w3.org/1999/xlink" x="0px" y="0px"
	 viewBox="0 0 800 800" style="enable-background:new 0 0 800 800;" xml:space="preserve">
<style type="text/css">
	.st0{fill:#0BFFD0;stroke:#020202;stroke-miterlimit:10;}
	.st1{fill:#FF0000;stroke:#000000;stroke-miterlimit:10;}
	.st2{font-family:'Magneto-Bold';}
	.st3{font-size:160px;}
</style>
<g>
	<path class="st0" d="M550.2,397.1c0,83-67.3,150.2-150.2,150.2s-150.2-67.3-150.2-150.2c0-83,67.3-150.2,150.2-150.2
		C483,246.9,550.2,314.1,550.2,397.1z M684.1,358.4c-10.8,22.8-22.6,45.1-35.4,66.9c3.7,6.6,7.4,13.2,11.2,20.2
		c19.1,36.3,39.1,78.2,54.5,126.9c7.5,24.4,13.8,50.4,16.4,78.4c2.4,27.8,2.2,58.4-11,88.5c-6.7,14.9-17.4,29.1-31.6,39.5
		c-1.6,1.1-2.8,2.2-4.7,3.4l-6.2,3.6c-4.3,2.6-8.2,4-12.3,5.8c-8.2,3.3-16.8,5.3-25.4,6.7c-34.7,5-68.6-2.3-100.2-13.1
		c-50-17.8-96.2-45.1-139.3-77.2c-43.1,32.1-89.3,59.4-139.3,77.2c-31.6,10.8-65.4,18.1-100.2,13.1c-8.6-1.4-17.2-3.5-25.4-6.7
		c-4.1-1.8-8.1-3.2-12.3-5.8l-6.2-3.6c-1.9-1.2-3.1-2.3-4.7-3.4c-14.2-10.4-24.9-24.7-31.6-39.5c-13.3-30.1-13.4-60.7-11-88.5
		c2.7-28,9-54.1,16.4-78.4c15.4-48.7,35.4-90.6,54.5-126.9c3.8-7,7.5-13.6,11.2-20.2c-12.8-21.9-24.6-44.2-35.4-66.9
		c-29-61.6-51-126.4-57-193.3c-2.6-33.3-1.2-67.9,12.3-100.4c6.8-16,17.3-31.2,31.1-42.3l2.6-2.1l1.3-1l0.6-0.5
		c0.1-0.1,1.8-1.3,1.4-0.9l4.7-2.9c2.7-1.8,7.3-4,11.4-6c8.3-3.7,16.1-5.7,24.2-7.3c32.5-5.3,62.2,2.2,88.5,11.5
		c26.4,9.6,50.1,22.2,71.8,35.6c35,21.9,64.9,45.6,91.1,68.4c26.2-22.8,56.1-46.6,91.1-68.4c21.7-13.4,45.4-26,71.8-35.6
		c26.3-9.3,56-16.8,88.5-11.5c8.1,1.6,16,3.6,24.2,7.3c4.1,1.9,8.8,4.1,11.4,6l4.7,2.9c-0.5-0.4,1.3,0.9,1.4,0.9l0.6,0.5l1.3,1
		l2.6,2.1c13.8,11.1,24.3,26.2,31.1,42.3c13.5,32.4,15,67.1,12.3,100.4C735.1,232.1,713,296.8,684.1,358.4z M356.7,673.4
		c-48.6-41.7-92.8-89.3-132.5-140.2c-25.6-33.3-49.4-68.1-70.7-104.2c-3.1,6.1-6.2,12.1-9.2,18.6c-17.4,36.8-34.9,79.7-45.9,128.3
		c-5.5,24.2-9.5,49.8-10,76c0,26,3.4,53.4,15.9,75.4c12.3,22.1,34.3,35.1,60.1,36.2c25.9,1.5,53.8-7.1,80.6-18.6
		C284,727.5,321.2,702.2,356.7,673.4z M646.5,429.1c-21.3,36.1-45.1,70.9-70.7,104.2c-39.7,50.9-83.9,98.4-132.5,140.2
		c35.5,28.8,72.7,54.1,111.8,71.5c26.8,11.6,54.7,20.1,80.6,18.6c25.7-1.1,47.8-14.1,60.1-36.2c12.5-22,15.9-49.4,15.9-75.4
		c-0.4-26.2-4.5-51.8-10-76c-11.1-48.5-28.5-91.4-45.9-128.2C652.6,441.2,649.6,435.1,646.5,429.1z M551.6,279.7
		c0,0,5.1,6.7,14.6,19.2c9.3,12.7,22.9,31.3,39.2,55.7c2.7,4.1,5.6,8.6,8.5,13c6.7-11.5,13.3-22.9,19.5-34.6
		c29.5-56.4,54.5-114.9,64.3-173.1c4.5-28.8,5.8-57.9-2.1-82.6c-3.9-12.2-10.1-23-18.6-31.3l-1.6-1.6l-0.8-0.8l-0.4-0.4
		c-0.3-0.2,1.1,0.8,0.2,0.1l-4.4-3.3c-3.2-2.6-5.3-3.4-7.6-4.9c-4.8-2.8-10.9-5.1-16.8-6.8c-24.4-6.6-51.8-3.1-76.9,3.4
		c-25.3,7-49,17.3-71.1,28.6c-35.4,18.3-66.2,39.6-93.2,60.8c4.7,4.1,9.2,8.2,13.7,12.2c30.1,27.8,54.9,53.6,74.4,75.5
		c19.6,21.9,34.2,39.7,44.1,51.9C546.4,273.1,551.6,279.7,551.6,279.7s-5.2-6.6-15.1-18.8c-10.1-12-24.6-30-44.8-51.3
		c-20.1-21.4-45.4-46.5-76.7-72.7c-4.8-4-9.9-8.1-15.1-12.2c-5.1,4.1-10.2,8.2-15.1,12.2c-31.3,26.2-56.6,51.3-76.7,72.7
		c-20.2,21.3-34.7,39.3-44.8,51.3c-9.8,12.3-15,18.8-15,18.8s5.2-6.6,14.9-19c9.9-12.2,24.5-30,44.1-51.9
		c19.5-21.9,44.3-47.6,74.4-75.5c4.4-4,9-8.1,13.7-12.2c-27-21.1-57.8-42.5-93.2-60.8c-22.1-11.3-45.8-21.6-71.1-28.6
		c-25.1-6.5-52.5-10-76.9-3.4c-5.9,1.7-12,4-16.8,6.8c-2.3,1.5-4.4,2.3-7.6,4.9l-4.4,3.3c-0.8,0.6,0.5-0.4,0.2-0.1l-0.4,0.4
		l-0.8,0.8l-1.6,1.6c-8.5,8.4-14.7,19.1-18.6,31.4c-7.9,24.6-6.6,53.8-2.1,82.6c9.8,58.2,34.9,116.7,64.3,173.1
		c6.2,11.6,12.8,23.1,19.5,34.6c2.9-4.4,5.7-8.9,8.5-13c16.3-24.5,29.9-43.1,39.2-55.7c9.6-12.5,14.6-19.2,14.6-19.2
		s-5,6.7-14.5,19.3c-9.1,12.8-22.9,31.3-38.5,56.2c-2.8,4.4-5.7,9.1-8.5,13.9c25.5,43.7,54.2,86.2,85.7,126.7
		c38.8,50.4,81.7,97.6,127.4,140.1c45.6-42.5,88.5-89.7,127.4-140.1c31.5-40.5,60.2-83,85.7-126.7c-2.9-4.7-5.8-9.5-8.5-13.9
		c-15.6-24.8-29.4-43.4-38.5-56.2C556.6,286.5,551.6,279.7,551.6,279.7z"/>
</g>
<text transform="matrix(1 0 0 1 311 454.8898)" class="st1 st2 st3">N</text>
</svg>
